<svg width="57" height="57" viewBox="0 0 57 57" fill="none" xmlns="http://www.w3.org/2000/svg">
<rect x="0.97998" y="0.77002" width="56" height="56" rx="28" fill="#28BD86"/>
<path d="M24.48 31.77C23.6362 31.77 22.98 31.1138 22.98 30.27V19.77C22.98 18.9731 23.6362 18.27 24.48 18.27V17.52C24.48 17.145 24.8081 16.77 25.23 16.77H28.23C28.605 16.77 28.98 17.145 28.98 17.52V18.27C29.7769 18.27 30.48 18.9731 30.48 19.77V30.27C30.48 31.1138 29.7769 31.77 28.98 31.77H28.4175V32.52C28.4175 32.9419 28.0425 33.27 27.6675 33.27H25.7925C25.3706 33.27 25.0425 32.9419 25.0425 32.52V31.77H24.48ZM38.73 37.77C39.9487 37.77 40.98 38.8013 40.98 40.02C40.98 40.4419 40.605 40.77 40.23 40.77H17.73C17.3081 40.77 16.98 40.4419 16.98 40.02C16.98 38.8013 17.9644 37.77 19.23 37.77H31.98C35.2612 37.77 37.98 35.0981 37.98 31.77C37.98 28.4888 35.2612 25.77 31.98 25.77V22.77C36.9019 22.77 40.98 26.8481 40.98 31.77C40.98 34.1138 40.0894 36.1763 38.6362 37.77H38.73ZM21.855 36.27C21.6206 36.27 21.48 36.1294 21.48 35.895V35.145C21.48 34.9575 21.6206 34.77 21.855 34.77H31.605C31.7925 34.77 31.98 34.9575 31.98 35.145V35.895C31.98 36.1294 31.7925 36.27 31.605 36.27H21.855Z" fill="white"/>
</svg>
