<svg width="57" height="57" viewBox="0 0 57 57" fill="none" xmlns="http://www.w3.org/2000/svg">
<rect x="0.969971" y="0.470215" width="56" height="56" rx="28" fill="#28BD86"/>
<path d="M33.4231 31.4702C36.7512 31.6577 39.47 34.3765 39.47 37.7515C39.47 39.2515 38.2043 40.4702 36.7043 40.4702H21.1887C19.6887 40.4702 18.47 39.2515 18.47 37.7515C18.47 34.3765 21.1418 31.6577 24.47 31.4702L28.97 35.9702L33.4231 31.4702ZM28.97 30.7202C25.6418 30.7202 22.97 28.0483 22.97 24.7202V19.564C22.97 18.9546 23.345 18.3921 23.9075 18.1577L27.8918 16.7046C28.22 16.564 28.595 16.5171 28.97 16.5171C29.2981 16.5171 29.6731 16.564 30.0012 16.7046L33.9856 18.1577C34.5481 18.3921 34.97 18.9546 34.97 19.564V24.7202C34.97 28.0483 32.2512 30.7202 28.97 30.7202ZM27.095 19.8452V20.6421C27.095 20.7827 27.1887 20.8765 27.3293 20.8765H28.3137V21.8608C28.3137 22.0015 28.4075 22.0952 28.5481 22.0952H29.345C29.4856 22.0952 29.5793 22.0015 29.5793 21.8608V20.8765H30.6106C30.7043 20.8765 30.845 20.7827 30.845 20.6421V19.8452C30.845 19.7046 30.7043 19.6108 30.6106 19.6108H29.5793V18.5796C29.5793 18.4858 29.4856 18.3452 29.345 18.3452H28.5481C28.4075 18.3452 28.3137 18.4858 28.3137 18.5796V19.6108H27.3293C27.1887 19.6108 27.095 19.7046 27.095 19.8452ZM25.22 23.9702V24.7202C25.22 26.8296 26.8606 28.4702 28.97 28.4702C31.0325 28.4702 32.72 26.8296 32.72 24.7202V23.9702H25.22Z" fill="white"/>
</svg>
