<svg width="57" height="57" viewBox="0 0 57 57" fill="none" xmlns="http://www.w3.org/2000/svg">
<rect x="0.97998" y="0.470215" width="56" height="56" rx="28" fill="#28BD86"/>
<path d="M33.48 28.4702V31.4702H24.48V28.4702H33.48ZM37.6519 21.3921C37.8394 21.6265 37.98 21.9077 37.98 22.189V22.4702H31.98V16.4702H32.2612C32.5425 16.4702 32.8237 16.6108 33.0581 16.7983L37.6519 21.3921ZM30.48 22.8452C30.48 23.5015 30.9487 23.9702 31.605 23.9702H37.98V39.3452C37.98 40.0015 37.4644 40.4702 36.855 40.4702H21.105C20.4487 40.4702 19.98 40.0015 19.98 39.3452V17.5952C19.98 16.9858 20.4487 16.4702 21.105 16.4702H30.48V22.8452ZM22.98 19.8452V20.5952C22.98 20.8296 23.1206 20.9702 23.355 20.9702H27.105C27.2925 20.9702 27.48 20.8296 27.48 20.5952V19.8452C27.48 19.6577 27.2925 19.4702 27.105 19.4702H23.355C23.1206 19.4702 22.98 19.6577 22.98 19.8452ZM22.98 22.8452V23.5952C22.98 23.8296 23.1206 23.9702 23.355 23.9702H27.105C27.2925 23.9702 27.48 23.8296 27.48 23.5952V22.8452C27.48 22.6577 27.2925 22.4702 27.105 22.4702H23.355C23.1206 22.4702 22.98 22.6577 22.98 22.8452ZM34.98 37.0952V36.3452C34.98 36.1577 34.7925 35.9702 34.605 35.9702H30.855C30.6206 35.9702 30.48 36.1577 30.48 36.3452V37.0952C30.48 37.3296 30.6206 37.4702 30.855 37.4702H34.605C34.7925 37.4702 34.98 37.3296 34.98 37.0952ZM34.98 27.7202C34.98 27.3452 34.605 26.9702 34.23 26.9702H23.73C23.3081 26.9702 22.98 27.3452 22.98 27.7202V32.2202C22.98 32.6421 23.3081 32.9702 23.73 32.9702H34.23C34.605 32.9702 34.98 32.6421 34.98 32.2202V27.7202Z" fill="white"/>
</svg>
