<svg width="57" height="57" viewBox="0 0 57 57" fill="none" xmlns="http://www.w3.org/2000/svg">
<rect x="0.969971" y="0.77002" width="56" height="56" rx="28" fill="#28BD86"/>
<path d="M28.97 28.77C25.6418 28.77 22.97 26.0981 22.97 22.77C22.97 19.4888 25.6418 16.77 28.97 16.77C32.2512 16.77 34.97 19.4888 34.97 22.77C34.97 26.0981 32.2512 28.77 28.97 28.77ZM23.345 36.645C23.345 36.0356 23.8137 35.52 24.47 35.52C25.0793 35.52 25.595 36.0356 25.595 36.645C25.595 37.3013 25.0793 37.77 24.47 37.77C23.8137 37.77 23.345 37.3013 23.345 36.645ZM33.47 30.3169C36.7981 30.5044 39.47 33.2231 39.47 36.5981V38.7075C39.47 39.8325 38.4856 40.77 37.3606 40.77H20.5325C19.4075 40.77 18.47 39.8325 18.47 38.7075V36.5981C18.47 33.4575 20.72 30.8794 23.72 30.4106V34.1606C22.6418 34.4888 21.845 35.4731 21.845 36.6919C21.845 38.0981 23.0168 39.3169 24.47 39.3169C25.9231 39.3169 27.095 38.0981 27.095 36.6919C27.095 35.4731 26.2981 34.4888 25.22 34.1606V30.3638C25.5481 30.4106 25.9231 30.4575 26.2512 30.5981C27.095 30.8794 28.0325 31.0669 28.97 31.0669C29.9075 31.0669 30.7981 30.8794 31.6418 30.5981C31.7356 30.5513 31.8293 30.5513 31.97 30.5044V32.6138C30.2356 32.9888 28.97 34.4888 28.97 36.27V38.3325C28.97 38.7075 29.2512 39.0356 29.5793 39.0825L31.0793 39.27C31.2668 39.3169 31.4543 39.1763 31.5012 38.9888L31.6418 38.2388C31.6887 38.0513 31.5481 37.8638 31.3606 37.8169L30.47 37.6294V36.3638C30.47 33.2231 34.97 33.3638 34.97 36.27V37.6294L34.0325 37.8169C33.845 37.8638 33.7043 38.0513 33.7512 38.2388L33.8918 38.9888C33.9387 39.1763 34.1262 39.3169 34.3137 39.27L35.8606 38.9888C36.1887 38.895 36.47 38.6138 36.47 38.2388V36.27C36.47 34.4888 35.1575 32.9419 33.47 32.6138V30.3169Z" fill="white"/>
</svg>
