<svg width="1138" height="142" viewBox="0 0 1138 142" fill="none" xmlns="http://www.w3.org/2000/svg">
<path d="M0 16.2798C0 7.44321 7.16344 0.279785 16 0.279785H268.5C277.337 0.279785 284.5 7.44323 284.5 16.2798V125.98C284.5 134.816 277.337 141.98 268.5 141.98H0V16.2798Z" fill="#1B5FC1"/>
<path d="M57.088 78.2798C56.6613 78.2798 56.2987 78.1305 56 77.8318C55.7013 77.5331 55.552 77.1491 55.552 76.6798V68.9998H35.392C34.9653 68.9998 34.6027 68.8505 34.304 68.5518C34.0053 68.2531 33.856 67.8691 33.856 67.3998V62.2158C33.856 61.9171 33.92 61.5971 34.048 61.2558C34.176 60.9145 34.3467 60.5945 34.56 60.2958L53.312 34.5678C53.8667 33.8424 54.656 33.4798 55.68 33.4798H63.808C64.2347 33.4798 64.5973 33.6291 64.896 33.9278C65.1947 34.2264 65.344 34.6104 65.344 35.0798V60.4878H71.04C71.552 60.4878 71.936 60.6371 72.192 60.9358C72.4907 61.2345 72.64 61.5971 72.64 62.0238V67.3998C72.64 67.8691 72.4907 68.2531 72.192 68.5518C71.8933 68.8505 71.5307 68.9998 71.104 68.9998H65.344V76.6798C65.344 77.1491 65.1947 77.5331 64.896 77.8318C64.5973 78.1305 64.2347 78.2798 63.808 78.2798H57.088ZM43.776 60.8078H55.744V43.9758L43.776 60.8078ZM79.373 78.2798C78.9037 78.2798 78.5197 78.1305 78.221 77.8318C77.9223 77.5331 77.773 77.1491 77.773 76.6798V69.5118C77.773 69.0425 77.9223 68.6585 78.221 68.3598C78.5197 68.0611 78.9037 67.9118 79.373 67.9118H86.541C87.0103 67.9118 87.3943 68.0611 87.693 68.3598C87.9917 68.6585 88.141 69.0425 88.141 69.5118V76.6798C88.141 77.1491 87.9917 77.5331 87.693 77.8318C87.3943 78.1305 87.0103 78.2798 86.541 78.2798H79.373ZM98.9645 78.2798C98.5805 78.2798 98.2605 78.1518 98.0045 77.8958C97.7485 77.5971 97.6205 77.2558 97.6205 76.8718C97.6205 76.7011 97.6632 76.5091 97.7485 76.2958L112.853 42.0558H93.2045C92.7778 42.0558 92.3938 41.9064 92.0525 41.6078C91.7538 41.3091 91.6045 40.9464 91.6045 40.5198V35.0798C91.6045 34.6104 91.7538 34.2264 92.0525 33.9278C92.3938 33.6291 92.7778 33.4798 93.2045 33.4798H122.197C122.709 33.4798 123.093 33.6291 123.349 33.9278C123.647 34.2264 123.797 34.6104 123.797 35.0798V39.8798C123.797 40.5198 123.733 41.0531 123.604 41.4798C123.519 41.8638 123.37 42.2691 123.157 42.6958L108.117 76.7438C107.989 76.9998 107.754 77.3198 107.413 77.7038C107.114 78.0878 106.623 78.2798 105.941 78.2798H98.9645Z" fill="white"/>
<path d="M48.75 103.983C48.75 104.686 48.6589 105.314 48.4766 105.866C48.2943 106.418 48.0312 106.884 47.6875 107.264C47.3438 107.644 46.9271 107.936 46.4375 108.139C45.9531 108.337 45.4036 108.436 44.7891 108.436C44.2161 108.436 43.6901 108.337 43.2109 108.139C42.737 107.936 42.3255 107.644 41.9766 107.264C41.6328 106.884 41.3646 106.418 41.1719 105.866C40.9844 105.314 40.8906 104.686 40.8906 103.983C40.8906 103.045 41.0495 102.249 41.3672 101.592C41.6849 100.931 42.138 100.428 42.7266 100.084C43.3203 99.7355 44.026 99.561 44.8438 99.561C45.625 99.561 46.3073 99.7355 46.8906 100.084C47.4792 100.433 47.9349 100.939 48.2578 101.6C48.5859 102.256 48.75 103.051 48.75 103.983ZM42.2344 103.983C42.2344 104.67 42.3255 105.267 42.5078 105.772C42.6901 106.277 42.9714 106.668 43.3516 106.944C43.7318 107.22 44.2214 107.358 44.8203 107.358C45.4141 107.358 45.901 107.22 46.2812 106.944C46.6667 106.668 46.9505 106.277 47.1328 105.772C47.3151 105.267 47.4062 104.67 47.4062 103.983C47.4062 103.301 47.3151 102.712 47.1328 102.217C46.9505 101.717 46.6693 101.332 46.2891 101.061C45.9089 100.79 45.4167 100.655 44.8125 100.655C43.9219 100.655 43.2682 100.949 42.8516 101.538C42.4401 102.126 42.2344 102.941 42.2344 103.983ZM54.8047 100.733H52.6719V108.28H51.375V100.733H49.8594V100.108L51.375 99.6782V99.1079C51.375 98.3892 51.4818 97.8058 51.6953 97.3579C51.9089 96.9048 52.2188 96.5715 52.625 96.3579C53.0312 96.1444 53.526 96.0376 54.1094 96.0376C54.4375 96.0376 54.737 96.0662 55.0078 96.1235C55.2839 96.1808 55.526 96.2459 55.7344 96.3188L55.3984 97.3423C55.2214 97.285 55.0208 97.2329 54.7969 97.186C54.5781 97.134 54.3542 97.1079 54.125 97.1079C53.6302 97.1079 53.263 97.2694 53.0234 97.5923C52.7891 97.91 52.6719 98.41 52.6719 99.0923V99.7173H54.8047V100.733ZM63.5703 101.295C64.3464 101.295 65.0208 101.428 65.5938 101.694C66.1667 101.954 66.6094 102.334 66.9219 102.834C67.2396 103.334 67.3984 103.941 67.3984 104.655C67.3984 105.436 67.2292 106.111 66.8906 106.678C66.5521 107.241 66.0651 107.676 65.4297 107.983C64.7943 108.285 64.0339 108.436 63.1484 108.436C62.5547 108.436 62.0026 108.384 61.4922 108.28C60.9818 108.176 60.5521 108.019 60.2031 107.811V106.577C60.5833 106.806 61.0443 106.988 61.5859 107.124C62.1276 107.259 62.6536 107.327 63.1641 107.327C63.7422 107.327 64.2474 107.236 64.6797 107.053C65.1172 106.866 65.4557 106.584 65.6953 106.209C65.9401 105.829 66.0625 105.353 66.0625 104.78C66.0625 104.019 65.8281 103.433 65.3594 103.022C64.8958 102.605 64.1615 102.397 63.1562 102.397C62.8333 102.397 62.4792 102.423 62.0938 102.475C61.7083 102.527 61.3906 102.584 61.1406 102.647L60.4844 102.217L60.9219 96.8579H66.6016V98.0454H62.0312L61.7422 101.491C61.9401 101.449 62.1953 101.407 62.5078 101.366C62.8203 101.319 63.1745 101.295 63.5703 101.295Z" fill="white"/>
<g clip-path="url(#clip0_1_96)">
<g clip-path="url(#clip1_1_96)">
<path d="M84.8545 96.3212L83.0602 100.118L79.0552 100.727C78.8416 100.748 78.6627 100.855 78.5185 101.047C78.3744 101.239 78.3049 101.458 78.3103 101.704C78.3156 101.95 78.4037 102.158 78.5746 102.329L81.4582 105.26L80.7854 109.474C80.7427 109.709 80.7854 109.919 80.9135 110.106C81.0417 110.293 81.2152 110.416 81.4342 110.475C81.6531 110.534 81.8587 110.51 82.051 110.403L85.6555 108.528L89.26 110.403C89.4736 110.51 89.6898 110.534 89.9088 110.475C90.1277 110.416 90.2959 110.293 90.4134 110.106C90.5309 109.919 90.5683 109.709 90.5255 109.474L89.8687 105.26L92.7363 102.329C92.9072 102.158 92.9953 101.955 93.0006 101.72C93.006 101.485 92.9392 101.271 92.8004 101.079C92.6615 100.887 92.4853 100.769 92.2717 100.727L88.2667 100.118L86.4565 96.3212C86.3497 96.1076 86.1895 95.9607 85.9759 95.8806C85.7623 95.8005 85.5487 95.8005 85.3351 95.8806C85.1215 95.9607 84.9613 96.1076 84.8545 96.3212Z" fill="#28BD86"/>
</g>
</g>
<g clip-path="url(#clip2_1_96)">
<path d="M84.8563 111.48L83.0643 115.272L79.0643 115.88C78.8509 115.901 78.6723 116.008 78.5283 116.2C78.3843 116.392 78.3149 116.61 78.3203 116.856C78.3256 117.101 78.4136 117.309 78.5843 117.48L81.4643 120.408L80.7923 124.616C80.7496 124.85 80.7923 125.061 80.9203 125.248C81.0483 125.434 81.2216 125.557 81.4403 125.616C81.6589 125.674 81.8643 125.65 82.0563 125.544L85.6563 123.672L89.2563 125.544C89.4696 125.65 89.6856 125.674 89.9043 125.616C90.1229 125.557 90.2909 125.434 90.4083 125.248C90.5256 125.061 90.5629 124.85 90.5203 124.616L89.8643 120.408L92.7283 117.48C92.8989 117.309 92.9869 117.106 92.9923 116.872C92.9976 116.637 92.9309 116.424 92.7923 116.232C92.6536 116.04 92.4776 115.922 92.2643 115.88L88.2643 115.272L86.4563 111.48C86.3496 111.266 86.1896 111.12 85.9763 111.04C85.7629 110.96 85.5496 110.96 85.3363 111.04C85.1229 111.12 84.9629 111.266 84.8563 111.48Z" fill="#1B5FC1"/>
</g>
<g clip-path="url(#clip3_1_96)">
<g clip-path="url(#clip4_1_96)">
<path d="M101.874 96.3212L100.08 100.118L96.0752 100.727C95.8616 100.748 95.6827 100.855 95.5385 101.047C95.3944 101.239 95.3249 101.458 95.3303 101.704C95.3356 101.95 95.4237 102.158 95.5946 102.329L98.4782 105.26L97.8054 109.474C97.7626 109.709 97.8054 109.919 97.9335 110.106C98.0617 110.293 98.2352 110.416 98.4542 110.475C98.6731 110.534 98.8787 110.51 99.0709 110.403L102.675 108.528L106.28 110.403C106.494 110.51 106.71 110.534 106.929 110.475C107.148 110.416 107.316 110.293 107.433 110.106C107.551 109.919 107.588 109.709 107.546 109.474L106.889 105.26L109.756 102.329C109.927 102.158 110.015 101.955 110.021 101.72C110.026 101.485 109.959 101.271 109.82 101.079C109.682 100.887 109.505 100.769 109.292 100.727L105.287 100.118L103.476 96.3212C103.37 96.1076 103.209 95.9607 102.996 95.8806C102.782 95.8005 102.569 95.8005 102.355 95.8806C102.141 95.9607 101.981 96.1076 101.874 96.3212Z" fill="#28BD86"/>
</g>
</g>
<g clip-path="url(#clip5_1_96)">
<path d="M101.876 111.48L100.084 115.272L96.0843 115.88C95.8709 115.901 95.6923 116.008 95.5483 116.2C95.4043 116.392 95.3349 116.61 95.3403 116.856C95.3456 117.101 95.4336 117.309 95.6043 117.48L98.4843 120.408L97.8123 124.616C97.7696 124.85 97.8123 125.061 97.9403 125.248C98.0683 125.434 98.2416 125.557 98.4603 125.616C98.6789 125.674 98.8843 125.65 99.0763 125.544L102.676 123.672L106.276 125.544C106.49 125.65 106.706 125.674 106.924 125.616C107.143 125.557 107.311 125.434 107.428 125.248C107.546 125.061 107.583 124.85 107.54 124.616L106.884 120.408L109.748 117.48C109.919 117.309 110.007 117.106 110.012 116.872C110.018 116.637 109.951 116.424 109.812 116.232C109.674 116.04 109.498 115.922 109.284 115.88L105.284 115.272L103.476 111.48C103.37 111.266 103.21 111.12 102.996 111.04C102.783 110.96 102.57 110.96 102.356 111.04C102.143 111.12 101.983 111.266 101.876 111.48Z" fill="#1B5FC1"/>
</g>
<g clip-path="url(#clip6_1_96)">
<g clip-path="url(#clip7_1_96)">
<path d="M118.884 96.3212L117.09 100.118L113.085 100.727C112.872 100.748 112.693 100.855 112.549 101.047C112.404 101.239 112.335 101.458 112.34 101.704C112.346 101.95 112.434 102.158 112.605 102.329L115.488 105.26L114.815 109.474C114.773 109.709 114.815 109.919 114.944 110.106C115.072 110.293 115.245 110.416 115.464 110.475C115.683 110.534 115.889 110.51 116.081 110.403L119.685 108.528L123.29 110.403C123.504 110.51 123.72 110.534 123.939 110.475C124.158 110.416 124.326 110.293 124.443 110.106C124.561 109.919 124.598 109.709 124.556 109.474L123.899 105.26L126.766 102.329C126.937 102.158 127.025 101.955 127.031 101.72C127.036 101.485 126.969 101.271 126.83 101.079C126.692 100.887 126.515 100.769 126.302 100.727L122.297 100.118L120.486 96.3212C120.38 96.1076 120.219 95.9607 120.006 95.8806C119.792 95.8005 119.579 95.8005 119.365 95.8806C119.151 95.9607 118.991 96.1076 118.884 96.3212Z" fill="#28BD86"/>
</g>
</g>
<g clip-path="url(#clip8_1_96)">
<path d="M118.896 111.48L117.104 115.272L113.104 115.88C112.891 115.901 112.712 116.008 112.568 116.2C112.424 116.392 112.355 116.61 112.36 116.856C112.366 117.101 112.454 117.309 112.624 117.48L115.504 120.408L114.832 124.616C114.79 124.85 114.832 125.061 114.96 125.248C115.088 125.434 115.262 125.557 115.48 125.616C115.699 125.674 115.904 125.65 116.096 125.544L119.696 123.672L123.296 125.544C123.51 125.65 123.726 125.674 123.944 125.616C124.163 125.557 124.331 125.434 124.448 125.248C124.566 125.061 124.603 124.85 124.56 124.616L123.904 120.408L126.768 117.48C126.939 117.309 127.027 117.106 127.032 116.872C127.038 116.637 126.971 116.424 126.832 116.232C126.694 116.04 126.518 115.922 126.304 115.88L122.304 115.272L120.496 111.48C120.39 111.266 120.23 111.12 120.016 111.04C119.803 110.96 119.59 110.96 119.376 111.04C119.163 111.12 119.003 111.266 118.896 111.48Z" fill="#1B5FC1"/>
</g>
<g clip-path="url(#clip9_1_96)">
<g clip-path="url(#clip10_1_96)">
<path d="M135.904 96.3212L134.11 100.118L130.105 100.727C129.892 100.748 129.713 100.855 129.569 101.047C129.424 101.239 129.355 101.458 129.36 101.704C129.366 101.95 129.454 102.158 129.625 102.329L132.508 105.26L131.835 109.474C131.793 109.709 131.835 109.919 131.964 110.106C132.092 110.293 132.265 110.416 132.484 110.475C132.703 110.534 132.909 110.51 133.101 110.403L136.705 108.528L140.31 110.403C140.524 110.51 140.74 110.534 140.959 110.475C141.178 110.416 141.346 110.293 141.463 110.106C141.581 109.919 141.618 109.709 141.576 109.474L140.919 105.26L143.786 102.329C143.957 102.158 144.045 101.955 144.051 101.72C144.056 101.485 143.989 101.271 143.85 101.079C143.712 100.887 143.535 100.769 143.322 100.727L139.317 100.118L137.506 96.3212C137.4 96.1076 137.239 95.9607 137.026 95.8806C136.812 95.8005 136.599 95.8005 136.385 95.8806C136.171 95.9607 136.011 96.1076 135.904 96.3212Z" fill="#28BD86"/>
</g>
</g>
<g clip-path="url(#clip11_1_96)">
<path d="M135.916 111.48L134.124 115.272L130.124 115.88C129.911 115.901 129.732 116.008 129.588 116.2C129.444 116.392 129.375 116.61 129.38 116.856C129.386 117.101 129.474 117.309 129.644 117.48L132.524 120.408L131.852 124.616C131.81 124.85 131.852 125.061 131.98 125.248C132.108 125.434 132.282 125.557 132.5 125.616C132.719 125.674 132.924 125.65 133.116 125.544L136.716 123.672L140.316 125.544C140.53 125.65 140.746 125.674 140.964 125.616C141.183 125.557 141.351 125.434 141.468 125.248C141.586 125.061 141.623 124.85 141.58 124.616L140.924 120.408L143.788 117.48C143.959 117.309 144.047 117.106 144.052 116.872C144.058 116.637 143.991 116.424 143.852 116.232C143.714 116.04 143.538 115.922 143.324 115.88L139.324 115.272L137.516 111.48C137.41 111.266 137.25 111.12 137.036 111.04C136.823 110.96 136.61 110.96 136.396 111.04C136.183 111.12 136.023 111.266 135.916 111.48Z" fill="#1B5FC1"/>
</g>
<g clip-path="url(#clip12_1_96)">
<g clip-path="url(#clip13_1_96)">
<path d="M150.955 98.3698L149.701 101.024L146.901 101.45C146.752 101.465 146.627 101.539 146.526 101.674C146.425 101.808 146.376 101.961 146.38 102.133C146.384 102.305 146.446 102.45 146.565 102.57L148.581 104.619L148.111 107.565C148.081 107.729 148.111 107.877 148.2 108.007C148.29 108.138 148.411 108.224 148.564 108.265C148.717 108.306 148.861 108.289 148.995 108.215L151.515 106.904L154.035 108.215C154.185 108.289 154.336 108.306 154.489 108.265C154.642 108.224 154.76 108.138 154.842 108.007C154.924 107.877 154.95 107.729 154.92 107.565L154.461 104.619L156.466 102.57C156.585 102.45 156.647 102.308 156.651 102.144C156.654 101.98 156.608 101.831 156.511 101.696C156.414 101.562 156.29 101.48 156.141 101.45L153.341 101.024L152.075 98.3698C152.001 98.2205 151.889 98.1178 151.739 98.0618C151.59 98.0058 151.441 98.0058 151.291 98.0618C151.142 98.1178 151.03 98.2205 150.955 98.3698Z" fill="#28BD86"/>
</g>
</g>
<g clip-path="url(#clip14_1_96)">
<path d="M152.936 111.48L151.144 115.272L147.144 115.88C146.931 115.901 146.752 116.008 146.608 116.2C146.464 116.392 146.395 116.61 146.4 116.856C146.406 117.101 146.494 117.309 146.664 117.48L149.544 120.408L148.872 124.616C148.83 124.85 148.872 125.061 149 125.248C149.128 125.434 149.302 125.557 149.52 125.616C149.739 125.674 149.944 125.65 150.136 125.544L153.736 123.672L157.336 125.544C157.55 125.65 157.766 125.674 157.984 125.616C158.203 125.557 158.371 125.434 158.488 125.248C158.606 125.061 158.643 124.85 158.6 124.616L157.944 120.408L160.808 117.48C160.979 117.309 161.067 117.106 161.072 116.872C161.078 116.637 161.011 116.424 160.872 116.232C160.734 116.04 160.558 115.922 160.344 115.88L156.344 115.272L154.536 111.48C154.43 111.266 154.27 111.12 154.056 111.04C153.843 110.96 153.63 110.96 153.416 111.04C153.203 111.12 153.043 111.266 152.936 111.48Z" fill="#1B5FC1"/>
</g>
<path d="M376.888 68.5986C376.981 69.5361 377.169 70.3799 377.169 71.5986C377.169 81.9111 370.231 89.1299 359.825 89.1299C349.888 89.1299 341.825 81.1611 341.825 71.1299C341.825 61.1924 349.888 53.1299 359.825 53.1299C364.7 53.1299 368.731 54.9111 371.919 57.9111L367.044 62.5986C365.731 61.2861 363.388 59.7861 359.825 59.7861C353.731 59.7861 348.669 64.8486 348.669 71.1299C348.669 77.5049 353.731 82.5674 359.825 82.5674C366.95 82.5674 369.669 77.4111 370.044 74.7861H359.825V68.5986H376.888ZM394.231 69.1611H399.481V74.4111H394.231V79.6611H388.981V74.4111H383.731V69.1611H388.981V64.0049H394.231V69.1611Z" fill="#28BD86"/>
<path d="M428.18 65.3298C428.02 65.3298 427.884 65.2738 427.772 65.1618C427.66 65.0498 427.604 64.9138 427.604 64.7538V61.6818H419.996C419.82 61.6818 419.676 61.6258 419.564 61.5138C419.468 61.4018 419.42 61.2658 419.42 61.1058V59.4738C419.42 59.3778 419.436 59.2658 419.468 59.1378C419.516 58.9938 419.588 58.8658 419.684 58.7538L426.764 48.9378C426.972 48.6658 427.268 48.5298 427.652 48.5298H430.268C430.428 48.5298 430.564 48.5858 430.676 48.6978C430.788 48.8098 430.844 48.9458 430.844 49.1058V58.8498H432.98C433.172 58.8498 433.316 58.9058 433.412 59.0178C433.524 59.1138 433.58 59.2498 433.58 59.4258V61.1058C433.58 61.2658 433.524 61.4018 433.412 61.5138C433.3 61.6258 433.164 61.6818 433.004 61.6818H430.844V64.7538C430.844 64.9138 430.788 65.0498 430.676 65.1618C430.564 65.2738 430.428 65.3298 430.268 65.3298H428.18ZM422.756 58.9458H427.676V52.0098L422.756 58.9458ZM436.114 65.3298C435.954 65.3298 435.818 65.2738 435.706 65.1618C435.594 65.0498 435.538 64.9138 435.538 64.7538V62.3778C435.538 62.2018 435.594 62.0578 435.706 61.9458C435.818 61.8338 435.954 61.7778 436.114 61.7778H438.514C438.674 61.7778 438.81 61.8338 438.922 61.9458C439.034 62.0578 439.09 62.2018 439.09 62.3778V64.7538C439.09 64.9138 439.034 65.0498 438.922 65.1618C438.81 65.2738 438.674 65.3298 438.514 65.3298H436.114ZM448.228 65.5698C447.172 65.5698 446.228 65.4418 445.396 65.1858C444.564 64.9298 443.86 64.5698 443.284 64.1058C442.724 63.6418 442.292 63.0978 441.988 62.4738C441.7 61.8498 441.556 61.1538 441.556 60.3858C441.556 59.4578 441.78 58.6578 442.228 57.9858C442.692 57.2978 443.292 56.7698 444.028 56.4018C443.436 56.0338 442.972 55.5618 442.636 54.9858C442.316 54.4098 442.156 53.7378 442.156 52.9698C442.156 52.0418 442.388 51.2338 442.852 50.5458C443.332 49.8418 444.02 49.2898 444.916 48.8898C445.828 48.4898 446.932 48.2898 448.228 48.2898C449.524 48.2898 450.62 48.4898 451.516 48.8898C452.412 49.2738 453.092 49.8178 453.556 50.5218C454.02 51.2098 454.252 52.0178 454.252 52.9458C454.252 53.7138 454.092 54.3858 453.772 54.9618C453.452 55.5378 453.004 56.0178 452.428 56.4018C453.18 56.7538 453.78 57.2818 454.228 57.9858C454.676 58.6738 454.9 59.4818 454.9 60.4098C454.9 61.4178 454.636 62.3138 454.108 63.0978C453.596 63.8658 452.836 64.4738 451.828 64.9218C450.836 65.3538 449.636 65.5698 448.228 65.5698ZM448.228 63.0738C448.852 63.0738 449.412 62.9698 449.908 62.7618C450.42 62.5378 450.82 62.2258 451.108 61.8258C451.412 61.4258 451.564 60.9538 451.564 60.4098C451.564 59.8498 451.412 59.3778 451.108 58.9938C450.82 58.5938 450.42 58.2898 449.908 58.0818C449.412 57.8578 448.852 57.7458 448.228 57.7458C447.604 57.7458 447.036 57.8578 446.524 58.0818C446.028 58.2898 445.628 58.5938 445.324 58.9938C445.036 59.3778 444.892 59.8498 444.892 60.4098C444.892 60.9538 445.036 61.4258 445.324 61.8258C445.628 62.2258 446.028 62.5378 446.524 62.7618C447.036 62.9698 447.604 63.0738 448.228 63.0738ZM448.228 55.3698C448.756 55.3538 449.236 55.2498 449.668 55.0578C450.116 54.8658 450.468 54.6098 450.724 54.2898C450.996 53.9538 451.132 53.5538 451.132 53.0898C451.132 52.6258 451.004 52.2258 450.748 51.8898C450.508 51.5378 450.164 51.2658 449.716 51.0738C449.284 50.8818 448.788 50.7858 448.228 50.7858C447.668 50.7858 447.164 50.8818 446.716 51.0738C446.284 51.2658 445.94 51.5378 445.684 51.8898C445.444 52.2258 445.324 52.6258 445.324 53.0898C445.324 53.5538 445.444 53.9538 445.684 54.2898C445.94 54.6258 446.284 54.8898 446.716 55.0818C447.164 55.2738 447.668 55.3698 448.228 55.3698ZM456.975 67.3458C456.847 67.3458 456.735 67.2978 456.639 67.2018C456.543 67.1058 456.495 66.9858 456.495 66.8418C456.495 66.7778 456.511 66.6898 456.543 66.5778L464.703 46.9698C464.767 46.8578 464.855 46.7458 464.967 46.6338C465.079 46.5218 465.239 46.4658 465.447 46.4658H467.007C467.135 46.4658 467.247 46.5138 467.343 46.6098C467.455 46.7058 467.511 46.8258 467.511 46.9698C467.511 47.0338 467.487 47.1218 467.439 47.2338L459.255 66.8418C459.207 66.9378 459.127 67.0418 459.015 67.1538C458.903 67.2818 458.735 67.3458 458.511 67.3458H456.975ZM475.192 65.5938C473.816 65.5938 472.656 65.3698 471.712 64.9218C470.768 64.4578 470.048 63.8578 469.552 63.1218C469.072 62.3858 468.816 61.6018 468.784 60.7698C468.768 60.6258 468.808 60.5138 468.904 60.4338C469.016 60.3378 469.144 60.2898 469.288 60.2898H471.52C471.696 60.2898 471.84 60.3298 471.952 60.4098C472.08 60.4738 472.176 60.5938 472.24 60.7698C472.4 61.2498 472.624 61.6418 472.912 61.9458C473.216 62.2498 473.56 62.4738 473.944 62.6178C474.344 62.7618 474.76 62.8338 475.192 62.8338C475.768 62.8338 476.288 62.7218 476.752 62.4978C477.232 62.2578 477.616 61.9058 477.904 61.4418C478.192 60.9778 478.336 60.4098 478.336 59.7378C478.336 59.1458 478.2 58.6338 477.928 58.2018C477.656 57.7698 477.28 57.4338 476.8 57.1938C476.336 56.9378 475.8 56.8098 475.192 56.8098C474.744 56.8098 474.376 56.8658 474.088 56.9778C473.8 57.0898 473.552 57.2178 473.344 57.3618C473.152 57.5058 472.976 57.6338 472.816 57.7458C472.672 57.8578 472.504 57.9138 472.312 57.9138H470.104C469.96 57.9138 469.832 57.8658 469.72 57.7698C469.624 57.6578 469.576 57.5298 469.576 57.3858L470.416 49.1778C470.432 48.9698 470.504 48.8098 470.632 48.6978C470.76 48.5858 470.912 48.5298 471.088 48.5298H480.112C480.272 48.5298 480.408 48.5858 480.52 48.6978C480.632 48.8098 480.688 48.9458 480.688 49.1058V50.7138C480.688 50.8738 480.632 51.0098 480.52 51.1218C480.408 51.2338 480.272 51.2898 480.112 51.2898H473.176L472.792 55.2018C473.08 55.0098 473.464 54.8258 473.944 54.6498C474.424 54.4738 475.088 54.3858 475.936 54.3858C476.704 54.3858 477.432 54.5138 478.12 54.7698C478.824 55.0098 479.448 55.3698 479.992 55.8498C480.536 56.3138 480.96 56.8818 481.264 57.5538C481.584 58.2098 481.744 58.9618 481.744 59.8098C481.744 60.9778 481.472 61.9938 480.928 62.8578C480.384 63.7218 479.624 64.3938 478.648 64.8738C477.672 65.3538 476.52 65.5938 475.192 65.5938Z" fill="#0C122D"/>
<path d="M423.615 92.9199H422.508V85.8379C422.508 85.569 422.508 85.3389 422.508 85.1475C422.512 84.9515 422.517 84.7738 422.521 84.6143C422.53 84.4502 422.542 84.2839 422.555 84.1152C422.414 84.2611 422.282 84.3864 422.159 84.4912C422.036 84.5915 421.883 84.7168 421.701 84.8672L420.559 85.7832L419.965 85.0107L422.672 82.9258H423.615V92.9199ZM430.704 82.7822C431.283 82.7822 431.795 82.8734 432.242 83.0557C432.689 83.238 433.037 83.5068 433.288 83.8623C433.543 84.2132 433.671 84.6462 433.671 85.1611C433.671 85.5667 433.582 85.9222 433.404 86.2275C433.231 86.5283 432.996 86.7926 432.7 87.0205C432.404 87.2438 432.076 87.4443 431.716 87.6221C432.144 87.818 432.529 88.0391 432.871 88.2852C433.217 88.5312 433.491 88.8206 433.691 89.1533C433.892 89.486 433.992 89.8802 433.992 90.3359C433.992 90.8965 433.855 91.3818 433.582 91.792C433.313 92.1976 432.935 92.5098 432.447 92.7285C431.959 92.9473 431.388 93.0566 430.731 93.0566C430.025 93.0566 429.423 92.9518 428.927 92.7422C428.434 92.528 428.058 92.2227 427.799 91.8262C427.543 91.4251 427.416 90.9443 427.416 90.3838C427.416 89.9235 427.514 89.5247 427.71 89.1875C427.906 88.8457 428.166 88.5518 428.489 88.3057C428.813 88.0596 429.166 87.8522 429.549 87.6836C429.216 87.5013 428.911 87.2939 428.633 87.0615C428.359 86.8291 428.14 86.5579 427.976 86.248C427.817 85.9336 427.737 85.569 427.737 85.1543C427.737 84.6484 427.865 84.2201 428.12 83.8691C428.38 83.5137 428.733 83.2448 429.18 83.0625C429.631 82.8757 430.139 82.7822 430.704 82.7822ZM428.53 90.3906C428.53 90.901 428.71 91.3226 429.07 91.6553C429.43 91.9834 429.975 92.1475 430.704 92.1475C431.397 92.1475 431.932 91.9834 432.31 91.6553C432.689 91.3226 432.878 90.8874 432.878 90.3496C432.878 90.0169 432.791 89.7253 432.618 89.4746C432.445 89.2194 432.199 88.9915 431.88 88.791C431.561 88.5905 431.185 88.4082 430.752 88.2441L430.506 88.1553C430.086 88.3285 429.729 88.5221 429.432 88.7363C429.141 88.946 428.917 89.1852 428.763 89.4541C428.608 89.723 428.53 90.0352 428.53 90.3906ZM430.69 83.7119C430.152 83.7119 429.713 83.8418 429.371 84.1016C429.029 84.3568 428.858 84.7259 428.858 85.209C428.858 85.5553 428.94 85.8493 429.104 86.0908C429.273 86.3278 429.501 86.5329 429.788 86.7061C430.075 86.8747 430.396 87.0319 430.752 87.1777C431.098 87.0319 431.406 86.8724 431.675 86.6992C431.944 86.5215 432.155 86.3118 432.31 86.0703C432.465 85.8288 432.543 85.5394 432.543 85.2021C432.543 84.7191 432.372 84.3499 432.03 84.0947C431.693 83.8395 431.246 83.7119 430.69 83.7119ZM435.516 88.6475C435.516 88.0459 435.557 87.458 435.639 86.8838C435.726 86.3096 435.87 85.7764 436.07 85.2842C436.271 84.7874 436.544 84.3522 436.89 83.9785C437.237 83.6048 437.667 83.3132 438.182 83.1035C438.702 82.8893 439.324 82.7822 440.049 82.7822C440.254 82.7822 440.475 82.7936 440.712 82.8164C440.949 82.8346 441.145 82.8665 441.3 82.9121V83.8896C441.131 83.8304 440.937 83.7871 440.719 83.7598C440.504 83.7324 440.288 83.7188 440.069 83.7188C439.221 83.7188 438.554 83.9033 438.066 84.2725C437.583 84.6416 437.235 85.1429 437.02 85.7764C436.806 86.4053 436.683 87.1139 436.651 87.9023H436.726C436.868 87.6745 437.048 87.4694 437.266 87.2871C437.485 87.1003 437.749 86.9521 438.059 86.8428C438.374 86.7334 438.738 86.6787 439.153 86.6787C439.736 86.6787 440.245 86.7972 440.678 87.0342C441.115 87.2712 441.452 87.6152 441.689 88.0664C441.931 88.5176 442.052 89.0645 442.052 89.707C442.052 90.3952 441.924 90.9899 441.669 91.4912C441.414 91.9925 441.049 92.3799 440.575 92.6533C440.106 92.9222 439.545 93.0566 438.893 93.0566C438.406 93.0566 437.957 92.9632 437.547 92.7764C437.137 92.5895 436.779 92.3115 436.473 91.9424C436.173 91.5732 435.938 91.1152 435.769 90.5684C435.601 90.0169 435.516 89.3766 435.516 88.6475ZM438.88 92.0996C439.499 92.0996 439.996 91.9014 440.37 91.5049C440.744 91.1084 440.93 90.5091 440.93 89.707C440.93 89.0508 440.764 88.5312 440.431 88.1484C440.099 87.7656 439.597 87.5742 438.928 87.5742C438.472 87.5742 438.075 87.6699 437.738 87.8613C437.401 88.0482 437.139 88.2852 436.952 88.5723C436.765 88.8594 436.672 89.151 436.672 89.4473C436.672 89.748 436.715 90.0534 436.802 90.3633C436.893 90.6732 437.029 90.9603 437.212 91.2246C437.394 91.4889 437.624 91.7008 437.902 91.8604C438.18 92.0199 438.506 92.0996 438.88 92.0996ZM450.029 87.9092C450.029 88.7204 449.968 89.445 449.845 90.083C449.721 90.721 449.528 91.2611 449.263 91.7031C448.999 92.1452 448.657 92.4824 448.238 92.7148C447.819 92.9427 447.315 93.0566 446.727 93.0566C445.985 93.0566 445.369 92.8538 444.882 92.4482C444.399 92.0426 444.036 91.457 443.795 90.6914C443.558 89.9212 443.439 88.9938 443.439 87.9092C443.439 86.8428 443.546 85.9268 443.761 85.1611C443.979 84.391 444.33 83.8008 444.813 83.3906C445.296 82.9759 445.934 82.7686 446.727 82.7686C447.479 82.7686 448.099 82.9736 448.587 83.3838C449.074 83.7894 449.437 84.3773 449.674 85.1475C449.911 85.9131 450.029 86.8337 450.029 87.9092ZM444.581 87.9092C444.581 88.8389 444.652 89.6136 444.793 90.2334C444.934 90.8532 445.162 91.318 445.476 91.6279C445.795 91.9333 446.212 92.0859 446.727 92.0859C447.242 92.0859 447.657 91.9333 447.971 91.6279C448.291 91.3226 448.521 90.86 448.662 90.2402C448.808 89.6204 448.881 88.8434 448.881 87.9092C448.881 86.9932 448.81 86.2275 448.669 85.6123C448.527 84.9925 448.3 84.5277 447.985 84.2178C447.671 83.9033 447.251 83.7461 446.727 83.7461C446.203 83.7461 445.784 83.9033 445.47 84.2178C445.155 84.5277 444.927 84.9925 444.786 85.6123C444.649 86.2275 444.581 86.9932 444.581 87.9092ZM458.451 82.9258C459.271 82.9258 459.948 83.0283 460.481 83.2334C461.019 83.4339 461.42 83.7415 461.684 84.1562C461.949 84.571 462.081 85.0996 462.081 85.7422C462.081 86.2708 461.985 86.7129 461.794 87.0684C461.602 87.4193 461.352 87.7041 461.042 87.9229C460.732 88.1416 460.402 88.3102 460.051 88.4287L462.792 92.9199H461.438L458.991 88.75H456.913V92.9199H455.751V82.9258H458.451ZM458.383 83.9307H456.913V87.7656H458.499C459.315 87.7656 459.914 87.5993 460.297 87.2666C460.684 86.9339 460.878 86.444 460.878 85.7969C460.878 85.1178 460.673 84.637 460.263 84.3545C459.857 84.0719 459.23 83.9307 458.383 83.9307ZM467.105 85.291C467.743 85.291 468.29 85.4323 468.746 85.7148C469.202 85.9974 469.55 86.3939 469.792 86.9043C470.033 87.4102 470.154 88.0026 470.154 88.6816V89.3857H464.979C464.993 90.2653 465.212 90.9352 465.636 91.3955C466.059 91.8558 466.656 92.0859 467.427 92.0859C467.901 92.0859 468.32 92.0426 468.684 91.9561C469.049 91.8695 469.427 91.7419 469.819 91.5732V92.5713C469.441 92.7399 469.065 92.863 468.691 92.9404C468.322 93.0179 467.885 93.0566 467.379 93.0566C466.659 93.0566 466.03 92.9108 465.492 92.6191C464.959 92.3229 464.544 91.89 464.248 91.3203C463.952 90.7507 463.804 90.0534 463.804 89.2285C463.804 88.4219 463.938 87.7246 464.207 87.1367C464.48 86.5443 464.863 86.0885 465.355 85.7695C465.852 85.4505 466.435 85.291 467.105 85.291ZM467.092 86.2207C466.485 86.2207 466.002 86.4189 465.642 86.8154C465.282 87.2119 465.068 87.7656 465 88.4766H468.965C468.96 88.0299 468.889 87.638 468.753 87.3008C468.621 86.959 468.418 86.6947 468.144 86.5078C467.871 86.3164 467.52 86.2207 467.092 86.2207ZM473.729 92.9199L470.886 85.4277H472.102L473.75 89.96C473.864 90.2699 473.98 90.6117 474.098 90.9854C474.217 91.359 474.299 91.6598 474.345 91.8877H474.392C474.447 91.6598 474.538 91.359 474.666 90.9854C474.793 90.6071 474.91 90.2653 475.014 89.96L476.662 85.4277H477.879L475.028 92.9199H473.729ZM480.217 85.4277V92.9199H479.082V85.4277H480.217ZM479.663 82.625C479.85 82.625 480.009 82.6865 480.141 82.8096C480.278 82.9281 480.346 83.1149 480.346 83.3701C480.346 83.6208 480.278 83.8076 480.141 83.9307C480.009 84.0537 479.85 84.1152 479.663 84.1152C479.467 84.1152 479.303 84.0537 479.171 83.9307C479.043 83.8076 478.979 83.6208 478.979 83.3701C478.979 83.1149 479.043 82.9281 479.171 82.8096C479.303 82.6865 479.467 82.625 479.663 82.625ZM485.508 85.291C486.146 85.291 486.693 85.4323 487.148 85.7148C487.604 85.9974 487.953 86.3939 488.194 86.9043C488.436 87.4102 488.556 88.0026 488.556 88.6816V89.3857H483.382C483.395 90.2653 483.614 90.9352 484.038 91.3955C484.462 91.8558 485.059 92.0859 485.829 92.0859C486.303 92.0859 486.722 92.0426 487.087 91.9561C487.451 91.8695 487.83 91.7419 488.221 91.5732V92.5713C487.843 92.7399 487.467 92.863 487.094 92.9404C486.724 93.0179 486.287 93.0566 485.781 93.0566C485.061 93.0566 484.432 92.9108 483.894 92.6191C483.361 92.3229 482.946 91.89 482.65 91.3203C482.354 90.7507 482.206 90.0534 482.206 89.2285C482.206 88.4219 482.34 87.7246 482.609 87.1367C482.883 86.5443 483.265 86.0885 483.758 85.7695C484.254 85.4505 484.838 85.291 485.508 85.291ZM485.494 86.2207C484.888 86.2207 484.405 86.4189 484.045 86.8154C483.685 87.2119 483.471 87.7656 483.402 88.4766H487.367C487.362 88.0299 487.292 87.638 487.155 87.3008C487.023 86.959 486.82 86.6947 486.547 86.5078C486.273 86.3164 485.922 86.2207 485.494 86.2207ZM496.582 92.9062L495.249 88.5449C495.19 88.3581 495.133 88.1758 495.078 87.998C495.028 87.8158 494.98 87.6426 494.934 87.4785C494.893 87.3099 494.855 87.1549 494.818 87.0137C494.786 86.8678 494.759 86.7425 494.736 86.6377H494.688C494.67 86.7425 494.645 86.8678 494.613 87.0137C494.581 87.1549 494.542 87.3099 494.497 87.4785C494.456 87.6471 494.41 87.8249 494.36 88.0117C494.31 88.194 494.253 88.3786 494.189 88.5654L492.795 92.9062H491.516L489.452 85.4141H490.628L491.708 89.5498C491.781 89.8232 491.849 90.0944 491.913 90.3633C491.981 90.6276 492.038 90.8783 492.084 91.1152C492.134 91.3477 492.17 91.5505 492.193 91.7236H492.248C492.275 91.6097 492.305 91.473 492.337 91.3135C492.373 91.154 492.412 90.9854 492.453 90.8076C492.499 90.6253 492.546 90.4453 492.596 90.2676C492.647 90.0853 492.697 89.9144 492.747 89.7549L494.128 85.4141H495.351L496.684 89.748C496.753 89.9668 496.819 90.1947 496.883 90.4316C496.951 90.6686 497.013 90.8988 497.067 91.1221C497.122 91.3408 497.161 91.5368 497.183 91.71H497.238C497.256 91.555 497.291 91.3636 497.341 91.1357C497.391 90.9079 497.448 90.6572 497.512 90.3838C497.58 90.1104 497.651 89.8324 497.723 89.5498L498.817 85.4141H499.972L497.901 92.9062H496.582ZM506.186 90.8691C506.186 91.3477 506.066 91.751 505.824 92.0791C505.587 92.4027 505.245 92.6465 504.799 92.8105C504.357 92.9746 503.828 93.0566 503.213 93.0566C502.689 93.0566 502.235 93.0156 501.852 92.9336C501.47 92.8516 501.135 92.7354 500.847 92.585V91.5391C501.153 91.6895 501.517 91.8262 501.941 91.9492C502.365 92.0723 502.798 92.1338 503.24 92.1338C503.887 92.1338 504.357 92.029 504.648 91.8193C504.94 91.6097 505.086 91.3249 505.086 90.9648C505.086 90.7598 505.027 90.5798 504.908 90.4248C504.794 90.2653 504.6 90.1126 504.327 89.9668C504.054 89.8164 503.675 89.6523 503.192 89.4746C502.714 89.2923 502.299 89.1123 501.948 88.9346C501.602 88.7523 501.333 88.5312 501.141 88.2715C500.955 88.0117 500.861 87.6745 500.861 87.2598C500.861 86.6263 501.116 86.141 501.627 85.8037C502.142 85.4619 502.816 85.291 503.65 85.291C504.101 85.291 504.523 85.3366 504.915 85.4277C505.311 85.5143 505.68 85.6328 506.022 85.7832L505.639 86.6924C505.33 86.5602 504.999 86.4486 504.648 86.3574C504.297 86.2663 503.94 86.2207 503.575 86.2207C503.051 86.2207 502.648 86.3073 502.365 86.4805C502.087 86.6536 501.948 86.8906 501.948 87.1914C501.948 87.4238 502.012 87.6152 502.139 87.7656C502.272 87.916 502.481 88.0573 502.768 88.1895C503.055 88.3216 503.434 88.4766 503.903 88.6543C504.373 88.8275 504.778 89.0075 505.12 89.1943C505.462 89.3766 505.724 89.5999 505.906 89.8643C506.093 90.124 506.186 90.459 506.186 90.8691Z" fill="#575C74"/>
<path d="M641.138 69.7236L650.513 74.2236C652.294 75.1611 652.013 77.7861 650.138 78.2549L640.013 80.7861C639.825 80.7861 639.638 80.8799 639.45 80.8799C638.419 80.8799 637.481 80.0361 637.388 78.9111C637.294 78.2549 637.2 77.5049 637.2 76.8486C637.2 74.7861 637.575 72.8174 638.231 70.9424C638.513 70.0986 639.263 69.5361 640.2 69.5361C640.575 69.5361 640.856 69.5361 641.138 69.7236ZM645.263 92.1299C644.7 91.7549 644.325 91.0986 644.325 90.3486C644.325 89.7861 644.606 89.3174 644.888 88.9424L651.919 81.2549C653.231 79.7549 655.669 80.6924 655.575 82.7549L655.2 93.0674C655.2 94.2861 654.263 95.2236 653.138 95.2236C652.95 95.2236 652.856 95.1299 652.763 95.1299C650.044 94.6611 647.513 93.6299 645.263 92.1299ZM658.95 81.8174C657.825 80.1299 659.513 78.0674 661.388 78.6299L671.325 81.8174C672.169 82.1924 672.731 82.9424 672.731 83.8799C672.731 84.2549 672.731 84.5361 672.544 84.8174C671.419 87.2549 669.731 89.4111 667.669 91.1924C667.294 91.4736 666.825 91.6611 666.263 91.6611C665.513 91.6611 664.856 91.2861 664.481 90.6299L658.95 81.8174ZM672.825 69.4424C672.919 69.7236 673.013 70.0049 673.013 70.2861C673.013 71.2236 672.356 72.0674 671.513 72.3486L661.481 75.2549C659.513 75.8174 658.013 73.6611 659.138 71.9736L664.95 63.3486C665.325 62.7861 665.981 62.4111 666.731 62.4111C667.2 62.4111 667.763 62.5986 668.138 62.9736C670.106 64.7549 671.7 66.9111 672.825 69.4424ZM643.013 50.0361C646.2 48.4424 649.763 47.5049 653.513 47.2236C653.606 47.2236 653.606 47.2236 653.7 47.2236C654.825 47.2236 655.763 48.1611 655.763 49.2861V68.8799C655.763 71.0361 652.95 71.7861 651.825 69.9111L642.075 53.0361C641.888 52.6611 641.794 52.2861 641.794 51.9111C641.794 51.0674 642.263 50.3174 643.013 50.0361Z" fill="#28BD86"/>
<path d="M712.68 65.3298C712.52 65.3298 712.384 65.2738 712.272 65.1618C712.16 65.0498 712.104 64.9138 712.104 64.7538V61.6818H704.496C704.32 61.6818 704.176 61.6258 704.064 61.5138C703.968 61.4018 703.92 61.2658 703.92 61.1058V59.4738C703.92 59.3778 703.936 59.2658 703.968 59.1378C704.016 58.9938 704.088 58.8658 704.184 58.7538L711.264 48.9378C711.472 48.6658 711.768 48.5298 712.152 48.5298H714.768C714.928 48.5298 715.064 48.5858 715.176 48.6978C715.288 48.8098 715.344 48.9458 715.344 49.1058V58.8498H717.48C717.672 58.8498 717.816 58.9058 717.912 59.0178C718.024 59.1138 718.08 59.2498 718.08 59.4258V61.1058C718.08 61.2658 718.024 61.4018 717.912 61.5138C717.8 61.6258 717.664 61.6818 717.504 61.6818H715.344V64.7538C715.344 64.9138 715.288 65.0498 715.176 65.1618C715.064 65.2738 714.928 65.3298 714.768 65.3298H712.68ZM707.256 58.9458H712.176V52.0098L707.256 58.9458ZM720.614 65.3298C720.454 65.3298 720.318 65.2738 720.206 65.1618C720.094 65.0498 720.038 64.9138 720.038 64.7538V62.3778C720.038 62.2018 720.094 62.0578 720.206 61.9458C720.318 61.8338 720.454 61.7778 720.614 61.7778H723.014C723.174 61.7778 723.31 61.8338 723.422 61.9458C723.534 62.0578 723.59 62.2018 723.59 62.3778V64.7538C723.59 64.9138 723.534 65.0498 723.422 65.1618C723.31 65.2738 723.174 65.3298 723.014 65.3298H720.614ZM732.489 65.5698C731.113 65.5698 729.929 65.3138 728.937 64.8018C727.945 64.2738 727.177 63.5698 726.633 62.6898C726.089 61.7938 725.817 60.7938 725.817 59.6898C725.817 59.1938 725.881 58.7138 726.009 58.2498C726.137 57.7858 726.305 57.3458 726.513 56.9298C726.721 56.5138 726.921 56.1458 727.113 55.8258C727.321 55.4898 727.505 55.2258 727.665 55.0338L732.057 49.0098C732.121 48.9298 732.217 48.8338 732.345 48.7218C732.473 48.5938 732.649 48.5298 732.873 48.5298H735.105C735.249 48.5298 735.369 48.5858 735.465 48.6978C735.561 48.7938 735.609 48.9138 735.609 49.0578C735.609 49.1218 735.593 49.1858 735.561 49.2498C735.545 49.2978 735.521 49.3378 735.489 49.3698L732.129 54.0258C732.273 53.9778 732.441 53.9458 732.633 53.9298C732.825 53.9138 733.001 53.9058 733.161 53.9058C733.961 53.9218 734.721 54.0818 735.441 54.3858C736.161 54.6738 736.793 55.0738 737.337 55.5858C737.881 56.0978 738.305 56.6978 738.609 57.3858C738.929 58.0738 739.089 58.8258 739.089 59.6418C739.089 60.6978 738.825 61.6818 738.297 62.5938C737.769 63.4898 737.009 64.2098 736.017 64.7538C735.041 65.2978 733.865 65.5698 732.489 65.5698ZM732.465 62.8098C733.041 62.8098 733.569 62.6898 734.049 62.4498C734.545 62.2098 734.945 61.8578 735.249 61.3938C735.553 60.9298 735.705 60.3538 735.705 59.6658C735.705 58.9938 735.553 58.4258 735.249 57.9618C734.945 57.4978 734.545 57.1458 734.049 56.9058C733.569 56.6658 733.041 56.5458 732.465 56.5458C731.889 56.5458 731.353 56.6658 730.857 56.9058C730.377 57.1458 729.985 57.4978 729.681 57.9618C729.377 58.4258 729.225 58.9938 729.225 59.6658C729.225 60.3538 729.377 60.9298 729.681 61.3938C729.985 61.8578 730.377 62.2098 730.857 62.4498C731.353 62.6898 731.889 62.8098 732.465 62.8098ZM740.772 67.3458C740.644 67.3458 740.532 67.2978 740.436 67.2018C740.34 67.1058 740.292 66.9858 740.292 66.8418C740.292 66.7778 740.308 66.6898 740.34 66.5778L748.5 46.9698C748.564 46.8578 748.652 46.7458 748.764 46.6338C748.876 46.5218 749.036 46.4658 749.244 46.4658H750.804C750.932 46.4658 751.044 46.5138 751.14 46.6098C751.252 46.7058 751.308 46.8258 751.308 46.9698C751.308 47.0338 751.284 47.1218 751.236 47.2338L743.052 66.8418C743.004 66.9378 742.924 67.0418 742.812 67.1538C742.7 67.2818 742.532 67.3458 742.308 67.3458H740.772ZM758.989 65.5938C757.613 65.5938 756.453 65.3698 755.509 64.9218C754.565 64.4578 753.845 63.8578 753.349 63.1218C752.869 62.3858 752.613 61.6018 752.581 60.7698C752.565 60.6258 752.605 60.5138 752.701 60.4338C752.813 60.3378 752.941 60.2898 753.085 60.2898H755.317C755.493 60.2898 755.637 60.3298 755.749 60.4098C755.877 60.4738 755.973 60.5938 756.037 60.7698C756.197 61.2498 756.421 61.6418 756.709 61.9458C757.013 62.2498 757.357 62.4738 757.741 62.6178C758.141 62.7618 758.557 62.8338 758.989 62.8338C759.565 62.8338 760.085 62.7218 760.549 62.4978C761.029 62.2578 761.413 61.9058 761.701 61.4418C761.989 60.9778 762.133 60.4098 762.133 59.7378C762.133 59.1458 761.997 58.6338 761.725 58.2018C761.453 57.7698 761.077 57.4338 760.597 57.1938C760.133 56.9378 759.597 56.8098 758.989 56.8098C758.541 56.8098 758.173 56.8658 757.885 56.9778C757.597 57.0898 757.349 57.2178 757.141 57.3618C756.949 57.5058 756.773 57.6338 756.613 57.7458C756.469 57.8578 756.301 57.9138 756.109 57.9138H753.901C753.757 57.9138 753.629 57.8658 753.517 57.7698C753.421 57.6578 753.373 57.5298 753.373 57.3858L754.213 49.1778C754.229 48.9698 754.301 48.8098 754.429 48.6978C754.557 48.5858 754.709 48.5298 754.885 48.5298H763.909C764.069 48.5298 764.205 48.5858 764.317 48.6978C764.429 48.8098 764.485 48.9458 764.485 49.1058V50.7138C764.485 50.8738 764.429 51.0098 764.317 51.1218C764.205 51.2338 764.069 51.2898 763.909 51.2898H756.973L756.589 55.2018C756.877 55.0098 757.261 54.8258 757.741 54.6498C758.221 54.4738 758.885 54.3858 759.733 54.3858C760.501 54.3858 761.229 54.5138 761.917 54.7698C762.621 55.0098 763.245 55.3698 763.789 55.8498C764.333 56.3138 764.757 56.8818 765.061 57.5538C765.381 58.2098 765.541 58.9618 765.541 59.8098C765.541 60.9778 765.269 61.9938 764.725 62.8578C764.181 63.7218 763.421 64.3938 762.445 64.8738C761.469 65.3538 760.317 65.5938 758.989 65.5938Z" fill="#0C122D"/>
<path d="M708.115 92.9199H707.008V85.8379C707.008 85.569 707.008 85.3389 707.008 85.1475C707.012 84.9515 707.017 84.7738 707.021 84.6143C707.03 84.4502 707.042 84.2839 707.055 84.1152C706.914 84.2611 706.782 84.3864 706.659 84.4912C706.536 84.5915 706.383 84.7168 706.201 84.8672L705.059 85.7832L704.465 85.0107L707.172 82.9258H708.115V92.9199ZM712.005 88.6475C712.005 88.0459 712.046 87.458 712.128 86.8838C712.214 86.3096 712.358 85.7764 712.558 85.2842C712.759 84.7874 713.032 84.3522 713.379 83.9785C713.725 83.6048 714.156 83.3132 714.671 83.1035C715.19 82.8893 715.812 82.7822 716.537 82.7822C716.742 82.7822 716.963 82.7936 717.2 82.8164C717.437 82.8346 717.633 82.8665 717.788 82.9121V83.8896C717.619 83.8304 717.426 83.7871 717.207 83.7598C716.993 83.7324 716.776 83.7188 716.557 83.7188C715.71 83.7188 715.042 83.9033 714.555 84.2725C714.071 84.6416 713.723 85.1429 713.509 85.7764C713.294 86.4053 713.171 87.1139 713.139 87.9023H713.215C713.356 87.6745 713.536 87.4694 713.755 87.2871C713.973 87.1003 714.238 86.9521 714.548 86.8428C714.862 86.7334 715.227 86.6787 715.641 86.6787C716.225 86.6787 716.733 86.7972 717.166 87.0342C717.603 87.2712 717.941 87.6152 718.178 88.0664C718.419 88.5176 718.54 89.0645 718.54 89.707C718.54 90.3952 718.412 90.9899 718.157 91.4912C717.902 91.9925 717.537 92.3799 717.063 92.6533C716.594 92.9222 716.033 93.0566 715.382 93.0566C714.894 93.0566 714.445 92.9632 714.035 92.7764C713.625 92.5895 713.267 92.3115 712.962 91.9424C712.661 91.5732 712.426 91.1152 712.258 90.5684C712.089 90.0169 712.005 89.3766 712.005 88.6475ZM715.368 92.0996C715.988 92.0996 716.485 91.9014 716.858 91.5049C717.232 91.1084 717.419 90.5091 717.419 89.707C717.419 89.0508 717.252 88.5312 716.92 88.1484C716.587 87.7656 716.086 87.5742 715.416 87.5742C714.96 87.5742 714.564 87.6699 714.226 87.8613C713.889 88.0482 713.627 88.2852 713.44 88.5723C713.253 88.8594 713.16 89.151 713.16 89.4473C713.16 89.748 713.203 90.0534 713.29 90.3633C713.381 90.6732 713.518 90.9603 713.7 91.2246C713.882 91.4889 714.112 91.7008 714.39 91.8604C714.668 92.0199 714.994 92.0996 715.368 92.0996ZM726.094 85.2568C726.094 85.7035 726.007 86.0908 725.834 86.4189C725.661 86.7471 725.419 87.016 725.109 87.2256C724.799 87.4307 724.435 87.5742 724.015 87.6562V87.7109C724.808 87.8112 725.403 88.0664 725.8 88.4766C726.201 88.8867 726.401 89.4245 726.401 90.0898C726.401 90.6686 726.264 91.1813 725.991 91.6279C725.722 92.0745 725.307 92.4255 724.747 92.6807C724.191 92.9313 723.478 93.0566 722.607 93.0566C722.079 93.0566 721.589 93.0133 721.138 92.9268C720.691 92.8447 720.263 92.7057 719.852 92.5098V91.4434C720.267 91.6484 720.718 91.8102 721.206 91.9287C721.694 92.0426 722.165 92.0996 722.621 92.0996C723.532 92.0996 724.191 91.9196 724.596 91.5596C725.002 91.195 725.205 90.6982 725.205 90.0693C725.205 89.6364 725.091 89.2878 724.863 89.0234C724.64 88.7546 724.316 88.5586 723.892 88.4355C723.473 88.3079 722.967 88.2441 722.375 88.2441H721.377V87.2734H722.382C722.924 87.2734 723.384 87.1937 723.763 87.0342C724.141 86.8747 724.428 86.6514 724.624 86.3643C724.824 86.0726 724.925 85.7285 724.925 85.332C724.925 84.8262 724.756 84.4365 724.419 84.1631C724.082 83.8851 723.624 83.7461 723.045 83.7461C722.689 83.7461 722.366 83.7826 722.074 83.8555C721.782 83.9284 721.509 84.0286 721.254 84.1562C720.999 84.2839 720.743 84.432 720.488 84.6006L719.914 83.8213C720.278 83.5387 720.723 83.2949 721.247 83.0898C721.771 82.8848 722.366 82.7822 723.031 82.7822C724.052 82.7822 724.818 83.0146 725.328 83.4795C725.838 83.9443 726.094 84.5368 726.094 85.2568ZM734.529 87.9092C734.529 88.7204 734.468 89.445 734.345 90.083C734.221 90.721 734.028 91.2611 733.763 91.7031C733.499 92.1452 733.157 92.4824 732.738 92.7148C732.319 92.9427 731.815 93.0566 731.227 93.0566C730.485 93.0566 729.869 92.8538 729.382 92.4482C728.899 92.0426 728.536 91.457 728.295 90.6914C728.058 89.9212 727.939 88.9938 727.939 87.9092C727.939 86.8428 728.046 85.9268 728.261 85.1611C728.479 84.391 728.83 83.8008 729.313 83.3906C729.796 82.9759 730.434 82.7686 731.227 82.7686C731.979 82.7686 732.599 82.9736 733.087 83.3838C733.574 83.7894 733.937 84.3773 734.174 85.1475C734.411 85.9131 734.529 86.8337 734.529 87.9092ZM729.081 87.9092C729.081 88.8389 729.152 89.6136 729.293 90.2334C729.434 90.8532 729.662 91.318 729.976 91.6279C730.295 91.9333 730.712 92.0859 731.227 92.0859C731.742 92.0859 732.157 91.9333 732.471 91.6279C732.791 91.3226 733.021 90.86 733.162 90.2402C733.308 89.6204 733.381 88.8434 733.381 87.9092C733.381 86.9932 733.31 86.2275 733.169 85.6123C733.027 84.9925 732.8 84.5277 732.485 84.2178C732.171 83.9033 731.751 83.7461 731.227 83.7461C730.703 83.7461 730.284 83.9033 729.97 84.2178C729.655 84.5277 729.427 84.9925 729.286 85.6123C729.149 86.2275 729.081 86.9932 729.081 87.9092ZM742.951 82.9258C743.771 82.9258 744.448 83.0283 744.981 83.2334C745.519 83.4339 745.92 83.7415 746.184 84.1562C746.449 84.571 746.581 85.0996 746.581 85.7422C746.581 86.2708 746.485 86.7129 746.294 87.0684C746.102 87.4193 745.852 87.7041 745.542 87.9229C745.232 88.1416 744.902 88.3102 744.551 88.4287L747.292 92.9199H745.938L743.491 88.75H741.413V92.9199H740.251V82.9258H742.951ZM742.883 83.9307H741.413V87.7656H742.999C743.815 87.7656 744.414 87.5993 744.797 87.2666C745.184 86.9339 745.378 86.444 745.378 85.7969C745.378 85.1178 745.173 84.637 744.763 84.3545C744.357 84.0719 743.73 83.9307 742.883 83.9307ZM751.605 85.291C752.243 85.291 752.79 85.4323 753.246 85.7148C753.702 85.9974 754.05 86.3939 754.292 86.9043C754.533 87.4102 754.654 88.0026 754.654 88.6816V89.3857H749.479C749.493 90.2653 749.712 90.9352 750.136 91.3955C750.559 91.8558 751.156 92.0859 751.927 92.0859C752.401 92.0859 752.82 92.0426 753.184 91.9561C753.549 91.8695 753.927 91.7419 754.319 91.5732V92.5713C753.941 92.7399 753.565 92.863 753.191 92.9404C752.822 93.0179 752.385 93.0566 751.879 93.0566C751.159 93.0566 750.53 92.9108 749.992 92.6191C749.459 92.3229 749.044 91.89 748.748 91.3203C748.452 90.7507 748.304 90.0534 748.304 89.2285C748.304 88.4219 748.438 87.7246 748.707 87.1367C748.98 86.5443 749.363 86.0885 749.855 85.7695C750.352 85.4505 750.935 85.291 751.605 85.291ZM751.592 86.2207C750.985 86.2207 750.502 86.4189 750.142 86.8154C749.782 87.2119 749.568 87.7656 749.5 88.4766H753.465C753.46 88.0299 753.389 87.638 753.253 87.3008C753.121 86.959 752.918 86.6947 752.644 86.5078C752.371 86.3164 752.02 86.2207 751.592 86.2207ZM758.229 92.9199L755.386 85.4277H756.602L758.25 89.96C758.364 90.2699 758.48 90.6117 758.598 90.9854C758.717 91.359 758.799 91.6598 758.845 91.8877H758.892C758.947 91.6598 759.038 91.359 759.166 90.9854C759.293 90.6071 759.41 90.2653 759.514 89.96L761.162 85.4277H762.379L759.528 92.9199H758.229ZM764.717 85.4277V92.9199H763.582V85.4277H764.717ZM764.163 82.625C764.35 82.625 764.509 82.6865 764.641 82.8096C764.778 82.9281 764.846 83.1149 764.846 83.3701C764.846 83.6208 764.778 83.8076 764.641 83.9307C764.509 84.0537 764.35 84.1152 764.163 84.1152C763.967 84.1152 763.803 84.0537 763.671 83.9307C763.543 83.8076 763.479 83.6208 763.479 83.3701C763.479 83.1149 763.543 82.9281 763.671 82.8096C763.803 82.6865 763.967 82.625 764.163 82.625ZM770.008 85.291C770.646 85.291 771.193 85.4323 771.648 85.7148C772.104 85.9974 772.453 86.3939 772.694 86.9043C772.936 87.4102 773.056 88.0026 773.056 88.6816V89.3857H767.882C767.895 90.2653 768.114 90.9352 768.538 91.3955C768.962 91.8558 769.559 92.0859 770.329 92.0859C770.803 92.0859 771.222 92.0426 771.587 91.9561C771.951 91.8695 772.33 91.7419 772.721 91.5732V92.5713C772.343 92.7399 771.967 92.863 771.594 92.9404C771.224 93.0179 770.787 93.0566 770.281 93.0566C769.561 93.0566 768.932 92.9108 768.394 92.6191C767.861 92.3229 767.446 91.89 767.15 91.3203C766.854 90.7507 766.706 90.0534 766.706 89.2285C766.706 88.4219 766.84 87.7246 767.109 87.1367C767.383 86.5443 767.765 86.0885 768.258 85.7695C768.754 85.4505 769.338 85.291 770.008 85.291ZM769.994 86.2207C769.388 86.2207 768.905 86.4189 768.545 86.8154C768.185 87.2119 767.971 87.7656 767.902 88.4766H771.867C771.862 88.0299 771.792 87.638 771.655 87.3008C771.523 86.959 771.32 86.6947 771.047 86.5078C770.773 86.3164 770.422 86.2207 769.994 86.2207ZM781.082 92.9062L779.749 88.5449C779.69 88.3581 779.633 88.1758 779.578 87.998C779.528 87.8158 779.48 87.6426 779.434 87.4785C779.393 87.3099 779.355 87.1549 779.318 87.0137C779.286 86.8678 779.259 86.7425 779.236 86.6377H779.188C779.17 86.7425 779.145 86.8678 779.113 87.0137C779.081 87.1549 779.042 87.3099 778.997 87.4785C778.956 87.6471 778.91 87.8249 778.86 88.0117C778.81 88.194 778.753 88.3786 778.689 88.5654L777.295 92.9062H776.016L773.952 85.4141H775.128L776.208 89.5498C776.281 89.8232 776.349 90.0944 776.413 90.3633C776.481 90.6276 776.538 90.8783 776.584 91.1152C776.634 91.3477 776.67 91.5505 776.693 91.7236H776.748C776.775 91.6097 776.805 91.473 776.837 91.3135C776.873 91.154 776.912 90.9854 776.953 90.8076C776.999 90.6253 777.046 90.4453 777.096 90.2676C777.147 90.0853 777.197 89.9144 777.247 89.7549L778.628 85.4141H779.851L781.184 89.748C781.253 89.9668 781.319 90.1947 781.383 90.4316C781.451 90.6686 781.513 90.8988 781.567 91.1221C781.622 91.3408 781.661 91.5368 781.683 91.71H781.738C781.756 91.555 781.791 91.3636 781.841 91.1357C781.891 90.9079 781.948 90.6572 782.012 90.3838C782.08 90.1104 782.151 89.8324 782.223 89.5498L783.317 85.4141H784.472L782.401 92.9062H781.082ZM790.686 90.8691C790.686 91.3477 790.566 91.751 790.324 92.0791C790.087 92.4027 789.745 92.6465 789.299 92.8105C788.857 92.9746 788.328 93.0566 787.713 93.0566C787.189 93.0566 786.735 93.0156 786.352 92.9336C785.97 92.8516 785.635 92.7354 785.347 92.585V91.5391C785.653 91.6895 786.017 91.8262 786.441 91.9492C786.865 92.0723 787.298 92.1338 787.74 92.1338C788.387 92.1338 788.857 92.029 789.148 91.8193C789.44 91.6097 789.586 91.3249 789.586 90.9648C789.586 90.7598 789.527 90.5798 789.408 90.4248C789.294 90.2653 789.1 90.1126 788.827 89.9668C788.554 89.8164 788.175 89.6523 787.692 89.4746C787.214 89.2923 786.799 89.1123 786.448 88.9346C786.102 88.7523 785.833 88.5312 785.641 88.2715C785.455 88.0117 785.361 87.6745 785.361 87.2598C785.361 86.6263 785.616 86.141 786.127 85.8037C786.642 85.4619 787.316 85.291 788.15 85.291C788.601 85.291 789.023 85.3366 789.415 85.4277C789.811 85.5143 790.18 85.6328 790.522 85.7832L790.139 86.6924C789.83 86.5602 789.499 86.4486 789.148 86.3574C788.797 86.2663 788.44 86.2207 788.075 86.2207C787.551 86.2207 787.148 86.3073 786.865 86.4805C786.587 86.6536 786.448 86.8906 786.448 87.1914C786.448 87.4238 786.512 87.6152 786.639 87.7656C786.772 87.916 786.981 88.0573 787.268 88.1895C787.555 88.3216 787.934 88.4766 788.403 88.6543C788.873 88.8275 789.278 89.0075 789.62 89.1943C789.962 89.3766 790.224 89.5999 790.406 89.8643C790.593 90.124 790.686 90.459 790.686 90.8691Z" fill="#575C74"/>
<path d="M956.2 50.1299C958.637 50.1299 960.7 52.1924 960.7 54.6299V87.6299C960.7 90.1611 958.637 92.1299 956.2 92.1299H943.262V77.8799H948.7L949.731 71.1299H943.262V66.8174C943.262 64.9424 944.2 63.1611 947.106 63.1611H950.012V57.4424C950.012 57.4424 947.387 56.9736 944.762 56.9736C939.512 56.9736 936.044 60.2549 936.044 66.0674V71.1299H930.137V77.8799H936.044V92.1299H923.2C920.669 92.1299 918.7 90.1611 918.7 87.6299V54.6299C918.7 52.1924 920.669 50.1299 923.2 50.1299H956.2Z" fill="#28BD86"/>
<path d="M997.18 65.3298C997.02 65.3298 996.884 65.2738 996.772 65.1618C996.66 65.0498 996.604 64.9138 996.604 64.7538V61.6818H988.996C988.82 61.6818 988.676 61.6258 988.564 61.5138C988.468 61.4018 988.42 61.2658 988.42 61.1058V59.4738C988.42 59.3778 988.436 59.2658 988.468 59.1378C988.516 58.9938 988.588 58.8658 988.684 58.7538L995.764 48.9378C995.972 48.6658 996.268 48.5298 996.652 48.5298H999.268C999.428 48.5298 999.564 48.5858 999.676 48.6978C999.788 48.8098 999.844 48.9458 999.844 49.1058V58.8498H1001.98C1002.17 58.8498 1002.32 58.9058 1002.41 59.0178C1002.52 59.1138 1002.58 59.2498 1002.58 59.4258V61.1058C1002.58 61.2658 1002.52 61.4018 1002.41 61.5138C1002.3 61.6258 1002.16 61.6818 1002 61.6818H999.844V64.7538C999.844 64.9138 999.788 65.0498 999.676 65.1618C999.564 65.2738 999.428 65.3298 999.268 65.3298H997.18ZM991.756 58.9458H996.676V52.0098L991.756 58.9458ZM1005.11 65.3298C1004.95 65.3298 1004.82 65.2738 1004.71 65.1618C1004.59 65.0498 1004.54 64.9138 1004.54 64.7538V62.3778C1004.54 62.2018 1004.59 62.0578 1004.71 61.9458C1004.82 61.8338 1004.95 61.7778 1005.11 61.7778H1007.51C1007.67 61.7778 1007.81 61.8338 1007.92 61.9458C1008.03 62.0578 1008.09 62.2018 1008.09 62.3778V64.7538C1008.09 64.9138 1008.03 65.0498 1007.92 65.1618C1007.81 65.2738 1007.67 65.3298 1007.51 65.3298H1005.11ZM1012.27 65.3298C1012.13 65.3298 1012.01 65.2818 1011.91 65.1858C1011.82 65.0738 1011.77 64.9458 1011.77 64.8018C1011.77 64.7378 1011.79 64.6658 1011.82 64.5858L1017.6 51.3858H1010.07C1009.89 51.3858 1009.75 51.3298 1009.63 51.2178C1009.54 51.1058 1009.49 50.9698 1009.49 50.8098V49.1298C1009.49 48.9538 1009.54 48.8098 1009.63 48.6978C1009.75 48.5858 1009.89 48.5298 1010.07 48.5298H1020.6C1020.78 48.5298 1020.91 48.5858 1021.01 48.6978C1021.12 48.8098 1021.18 48.9538 1021.18 49.1298V50.6178C1021.18 50.8418 1021.15 51.0338 1021.11 51.1938C1021.07 51.3378 1021.03 51.4898 1020.96 51.6498L1015.23 64.7538C1015.18 64.8658 1015.09 64.9938 1014.96 65.1378C1014.85 65.2658 1014.68 65.3298 1014.46 65.3298H1012.27ZM1021.29 67.3458C1021.16 67.3458 1021.05 67.2978 1020.95 67.2018C1020.86 67.1058 1020.81 66.9858 1020.81 66.8418C1020.81 66.7778 1020.82 66.6898 1020.86 66.5778L1029.02 46.9698C1029.08 46.8578 1029.17 46.7458 1029.28 46.6338C1029.39 46.5218 1029.55 46.4658 1029.76 46.4658H1031.32C1031.45 46.4658 1031.56 46.5138 1031.66 46.6098C1031.77 46.7058 1031.82 46.8258 1031.82 46.9698C1031.82 47.0338 1031.8 47.1218 1031.75 47.2338L1023.57 66.8418C1023.52 66.9378 1023.44 67.0418 1023.33 67.1538C1023.22 67.2818 1023.05 67.3458 1022.82 67.3458H1021.29ZM1039.5 65.5938C1038.13 65.5938 1036.97 65.3698 1036.02 64.9218C1035.08 64.4578 1034.36 63.8578 1033.86 63.1218C1033.38 62.3858 1033.13 61.6018 1033.1 60.7698C1033.08 60.6258 1033.12 60.5138 1033.22 60.4338C1033.33 60.3378 1033.46 60.2898 1033.6 60.2898H1035.83C1036.01 60.2898 1036.15 60.3298 1036.26 60.4098C1036.39 60.4738 1036.49 60.5938 1036.55 60.7698C1036.71 61.2498 1036.94 61.6418 1037.22 61.9458C1037.53 62.2498 1037.87 62.4738 1038.26 62.6178C1038.66 62.7618 1039.07 62.8338 1039.5 62.8338C1040.08 62.8338 1040.6 62.7218 1041.06 62.4978C1041.54 62.2578 1041.93 61.9058 1042.22 61.4418C1042.5 60.9778 1042.65 60.4098 1042.65 59.7378C1042.65 59.1458 1042.51 58.6338 1042.24 58.2018C1041.97 57.7698 1041.59 57.4338 1041.11 57.1938C1040.65 56.9378 1040.11 56.8098 1039.5 56.8098C1039.06 56.8098 1038.69 56.8658 1038.4 56.9778C1038.11 57.0898 1037.86 57.2178 1037.66 57.3618C1037.46 57.5058 1037.29 57.6338 1037.13 57.7458C1036.98 57.8578 1036.82 57.9138 1036.62 57.9138H1034.42C1034.27 57.9138 1034.14 57.8658 1034.03 57.7698C1033.94 57.6578 1033.89 57.5298 1033.89 57.3858L1034.73 49.1778C1034.74 48.9698 1034.82 48.8098 1034.94 48.6978C1035.07 48.5858 1035.22 48.5298 1035.4 48.5298H1044.42C1044.58 48.5298 1044.72 48.5858 1044.83 48.6978C1044.94 48.8098 1045 48.9458 1045 49.1058V50.7138C1045 50.8738 1044.94 51.0098 1044.83 51.1218C1044.72 51.2338 1044.58 51.2898 1044.42 51.2898H1037.49L1037.1 55.2018C1037.39 55.0098 1037.78 54.8258 1038.26 54.6498C1038.74 54.4738 1039.4 54.3858 1040.25 54.3858C1041.02 54.3858 1041.74 54.5138 1042.43 54.7698C1043.14 55.0098 1043.76 55.3698 1044.3 55.8498C1044.85 56.3138 1045.27 56.8818 1045.58 57.5538C1045.9 58.2098 1046.06 58.9618 1046.06 59.8098C1046.06 60.9778 1045.78 61.9938 1045.24 62.8578C1044.7 63.7218 1043.94 64.3938 1042.96 64.8738C1041.98 65.3538 1040.83 65.5938 1039.5 65.5938Z" fill="#0C122D"/>
<path d="M994.939 92.9199H988.39V91.9697L991.063 89.2559C991.56 88.7546 991.977 88.3079 992.314 87.916C992.656 87.5241 992.916 87.139 993.094 86.7607C993.271 86.3779 993.36 85.9587 993.36 85.5029C993.36 84.9378 993.191 84.5072 992.854 84.2109C992.522 83.9102 992.082 83.7598 991.535 83.7598C991.056 83.7598 990.633 83.8418 990.263 84.0059C989.894 84.1699 989.516 84.4023 989.129 84.7031L988.52 83.9375C988.785 83.7142 989.072 83.516 989.382 83.3428C989.696 83.1696 990.031 83.0329 990.386 82.9326C990.747 82.8324 991.129 82.7822 991.535 82.7822C992.15 82.7822 992.681 82.8893 993.128 83.1035C993.574 83.3177 993.918 83.623 994.16 84.0195C994.406 84.416 994.529 84.8877 994.529 85.4346C994.529 85.9632 994.424 86.4554 994.215 86.9111C994.005 87.3623 993.711 87.8112 993.333 88.2578C992.955 88.6999 992.512 89.1693 992.007 89.666L989.833 91.833V91.8809H994.939V92.9199ZM1000.63 92.9199H999.519V85.8379C999.519 85.569 999.519 85.3389 999.519 85.1475C999.524 84.9515 999.528 84.7738 999.533 84.6143C999.542 84.4502 999.553 84.2839 999.567 84.1152C999.426 84.2611 999.294 84.3864 999.171 84.4912C999.048 84.5915 998.895 84.7168 998.713 84.8672L997.571 85.7832L996.976 85.0107L999.683 82.9258H1000.63V92.9199ZM1011.02 87.9092C1011.02 88.7204 1010.96 89.445 1010.83 90.083C1010.71 90.721 1010.52 91.2611 1010.25 91.7031C1009.99 92.1452 1009.65 92.4824 1009.23 92.7148C1008.81 92.9427 1008.3 93.0566 1007.72 93.0566C1006.97 93.0566 1006.36 92.8538 1005.87 92.4482C1005.39 92.0426 1005.02 91.457 1004.78 90.6914C1004.55 89.9212 1004.43 88.9938 1004.43 87.9092C1004.43 86.8428 1004.53 85.9268 1004.75 85.1611C1004.97 84.391 1005.32 83.8008 1005.8 83.3906C1006.28 82.9759 1006.92 82.7686 1007.72 82.7686C1008.47 82.7686 1009.09 82.9736 1009.57 83.3838C1010.06 83.7894 1010.42 84.3773 1010.66 85.1475C1010.9 85.9131 1011.02 86.8337 1011.02 87.9092ZM1005.57 87.9092C1005.57 88.8389 1005.64 89.6136 1005.78 90.2334C1005.92 90.8532 1006.15 91.318 1006.46 91.6279C1006.78 91.9333 1007.2 92.0859 1007.72 92.0859C1008.23 92.0859 1008.65 91.9333 1008.96 91.6279C1009.28 91.3226 1009.51 90.86 1009.65 90.2402C1009.8 89.6204 1009.87 88.8434 1009.87 87.9092C1009.87 86.9932 1009.8 86.2275 1009.66 85.6123C1009.52 84.9925 1009.29 84.5277 1008.97 84.2178C1008.66 83.9033 1008.24 83.7461 1007.72 83.7461C1007.19 83.7461 1006.77 83.9033 1006.46 84.2178C1006.14 84.5277 1005.92 84.9925 1005.77 85.6123C1005.64 86.2275 1005.57 86.9932 1005.57 87.9092ZM1019.03 87.9092C1019.03 88.7204 1018.97 89.445 1018.84 90.083C1018.72 90.721 1018.53 91.2611 1018.26 91.7031C1018 92.1452 1017.66 92.4824 1017.24 92.7148C1016.82 92.9427 1016.32 93.0566 1015.73 93.0566C1014.98 93.0566 1014.37 92.8538 1013.88 92.4482C1013.4 92.0426 1013.04 91.457 1012.79 90.6914C1012.56 89.9212 1012.44 88.9938 1012.44 87.9092C1012.44 86.8428 1012.55 85.9268 1012.76 85.1611C1012.98 84.391 1013.33 83.8008 1013.81 83.3906C1014.3 82.9759 1014.93 82.7686 1015.73 82.7686C1016.48 82.7686 1017.1 82.9736 1017.59 83.3838C1018.07 83.7894 1018.44 84.3773 1018.67 85.1475C1018.91 85.9131 1019.03 86.8337 1019.03 87.9092ZM1013.58 87.9092C1013.58 88.8389 1013.65 89.6136 1013.79 90.2334C1013.93 90.8532 1014.16 91.318 1014.48 91.6279C1014.8 91.9333 1015.21 92.0859 1015.73 92.0859C1016.24 92.0859 1016.66 91.9333 1016.97 91.6279C1017.29 91.3226 1017.52 90.86 1017.66 90.2402C1017.81 89.6204 1017.88 88.8434 1017.88 87.9092C1017.88 86.9932 1017.81 86.2275 1017.67 85.6123C1017.53 84.9925 1017.3 84.5277 1016.99 84.2178C1016.67 83.9033 1016.25 83.7461 1015.73 83.7461C1015.2 83.7461 1014.78 83.9033 1014.47 84.2178C1014.16 84.5277 1013.93 84.9925 1013.79 85.6123C1013.65 86.2275 1013.58 86.9932 1013.58 87.9092ZM1027.45 82.9258C1028.27 82.9258 1028.95 83.0283 1029.48 83.2334C1030.02 83.4339 1030.42 83.7415 1030.68 84.1562C1030.95 84.571 1031.08 85.0996 1031.08 85.7422C1031.08 86.2708 1030.99 86.7129 1030.79 87.0684C1030.6 87.4193 1030.35 87.7041 1030.04 87.9229C1029.73 88.1416 1029.4 88.3102 1029.05 88.4287L1031.79 92.9199H1030.44L1027.99 88.75H1025.91V92.9199H1024.75V82.9258H1027.45ZM1027.38 83.9307H1025.91V87.7656H1027.5C1028.31 87.7656 1028.91 87.5993 1029.3 87.2666C1029.68 86.9339 1029.88 86.444 1029.88 85.7969C1029.88 85.1178 1029.67 84.637 1029.26 84.3545C1028.86 84.0719 1028.23 83.9307 1027.38 83.9307ZM1036.11 85.291C1036.74 85.291 1037.29 85.4323 1037.75 85.7148C1038.2 85.9974 1038.55 86.3939 1038.79 86.9043C1039.03 87.4102 1039.15 88.0026 1039.15 88.6816V89.3857H1033.98C1033.99 90.2653 1034.21 90.9352 1034.64 91.3955C1035.06 91.8558 1035.66 92.0859 1036.43 92.0859C1036.9 92.0859 1037.32 92.0426 1037.68 91.9561C1038.05 91.8695 1038.43 91.7419 1038.82 91.5732V92.5713C1038.44 92.7399 1038.06 92.863 1037.69 92.9404C1037.32 93.0179 1036.88 93.0566 1036.38 93.0566C1035.66 93.0566 1035.03 92.9108 1034.49 92.6191C1033.96 92.3229 1033.54 91.89 1033.25 91.3203C1032.95 90.7507 1032.8 90.0534 1032.8 89.2285C1032.8 88.4219 1032.94 87.7246 1033.21 87.1367C1033.48 86.5443 1033.86 86.0885 1034.36 85.7695C1034.85 85.4505 1035.44 85.291 1036.11 85.291ZM1036.09 86.2207C1035.49 86.2207 1035 86.4189 1034.64 86.8154C1034.28 87.2119 1034.07 87.7656 1034 88.4766H1037.96C1037.96 88.0299 1037.89 87.638 1037.75 87.3008C1037.62 86.959 1037.42 86.6947 1037.14 86.5078C1036.87 86.3164 1036.52 86.2207 1036.09 86.2207ZM1042.73 92.9199L1039.89 85.4277H1041.1L1042.75 89.96C1042.86 90.2699 1042.98 90.6117 1043.1 90.9854C1043.22 91.359 1043.3 91.6598 1043.34 91.8877H1043.39C1043.45 91.6598 1043.54 91.359 1043.67 90.9854C1043.79 90.6071 1043.91 90.2653 1044.01 89.96L1045.66 85.4277H1046.88L1044.03 92.9199H1042.73ZM1049.22 85.4277V92.9199H1048.08V85.4277H1049.22ZM1048.66 82.625C1048.85 82.625 1049.01 82.6865 1049.14 82.8096C1049.28 82.9281 1049.35 83.1149 1049.35 83.3701C1049.35 83.6208 1049.28 83.8076 1049.14 83.9307C1049.01 84.0537 1048.85 84.1152 1048.66 84.1152C1048.47 84.1152 1048.3 84.0537 1048.17 83.9307C1048.04 83.8076 1047.98 83.6208 1047.98 83.3701C1047.98 83.1149 1048.04 82.9281 1048.17 82.8096C1048.3 82.6865 1048.47 82.625 1048.66 82.625ZM1054.51 85.291C1055.15 85.291 1055.69 85.4323 1056.15 85.7148C1056.6 85.9974 1056.95 86.3939 1057.19 86.9043C1057.44 87.4102 1057.56 88.0026 1057.56 88.6816V89.3857H1052.38C1052.4 90.2653 1052.61 90.9352 1053.04 91.3955C1053.46 91.8558 1054.06 92.0859 1054.83 92.0859C1055.3 92.0859 1055.72 92.0426 1056.09 91.9561C1056.45 91.8695 1056.83 91.7419 1057.22 91.5732V92.5713C1056.84 92.7399 1056.47 92.863 1056.09 92.9404C1055.72 93.0179 1055.29 93.0566 1054.78 93.0566C1054.06 93.0566 1053.43 92.9108 1052.89 92.6191C1052.36 92.3229 1051.95 91.89 1051.65 91.3203C1051.35 90.7507 1051.21 90.0534 1051.21 89.2285C1051.21 88.4219 1051.34 87.7246 1051.61 87.1367C1051.88 86.5443 1052.27 86.0885 1052.76 85.7695C1053.25 85.4505 1053.84 85.291 1054.51 85.291ZM1054.49 86.2207C1053.89 86.2207 1053.4 86.4189 1053.04 86.8154C1052.68 87.2119 1052.47 87.7656 1052.4 88.4766H1056.37C1056.36 88.0299 1056.29 87.638 1056.16 87.3008C1056.02 86.959 1055.82 86.6947 1055.55 86.5078C1055.27 86.3164 1054.92 86.2207 1054.49 86.2207ZM1065.58 92.9062L1064.25 88.5449C1064.19 88.3581 1064.13 88.1758 1064.08 87.998C1064.03 87.8158 1063.98 87.6426 1063.93 87.4785C1063.89 87.3099 1063.85 87.1549 1063.82 87.0137C1063.79 86.8678 1063.76 86.7425 1063.74 86.6377H1063.69C1063.67 86.7425 1063.64 86.8678 1063.61 87.0137C1063.58 87.1549 1063.54 87.3099 1063.5 87.4785C1063.46 87.6471 1063.41 87.8249 1063.36 88.0117C1063.31 88.194 1063.25 88.3786 1063.19 88.5654L1061.79 92.9062H1060.52L1058.45 85.4141H1059.63L1060.71 89.5498C1060.78 89.8232 1060.85 90.0944 1060.91 90.3633C1060.98 90.6276 1061.04 90.8783 1061.08 91.1152C1061.13 91.3477 1061.17 91.5505 1061.19 91.7236H1061.25C1061.28 91.6097 1061.3 91.473 1061.34 91.3135C1061.37 91.154 1061.41 90.9854 1061.45 90.8076C1061.5 90.6253 1061.55 90.4453 1061.6 90.2676C1061.65 90.0853 1061.7 89.9144 1061.75 89.7549L1063.13 85.4141H1064.35L1065.68 89.748C1065.75 89.9668 1065.82 90.1947 1065.88 90.4316C1065.95 90.6686 1066.01 90.8988 1066.07 91.1221C1066.12 91.3408 1066.16 91.5368 1066.18 91.71H1066.24C1066.26 91.555 1066.29 91.3636 1066.34 91.1357C1066.39 90.9079 1066.45 90.6572 1066.51 90.3838C1066.58 90.1104 1066.65 89.8324 1066.72 89.5498L1067.82 85.4141H1068.97L1066.9 92.9062H1065.58ZM1075.19 90.8691C1075.19 91.3477 1075.07 91.751 1074.82 92.0791C1074.59 92.4027 1074.25 92.6465 1073.8 92.8105C1073.36 92.9746 1072.83 93.0566 1072.21 93.0566C1071.69 93.0566 1071.24 93.0156 1070.85 92.9336C1070.47 92.8516 1070.13 92.7354 1069.85 92.585V91.5391C1070.15 91.6895 1070.52 91.8262 1070.94 91.9492C1071.36 92.0723 1071.8 92.1338 1072.24 92.1338C1072.89 92.1338 1073.36 92.029 1073.65 91.8193C1073.94 91.6097 1074.09 91.3249 1074.09 90.9648C1074.09 90.7598 1074.03 90.5798 1073.91 90.4248C1073.79 90.2653 1073.6 90.1126 1073.33 89.9668C1073.05 89.8164 1072.68 89.6523 1072.19 89.4746C1071.71 89.2923 1071.3 89.1123 1070.95 88.9346C1070.6 88.7523 1070.33 88.5312 1070.14 88.2715C1069.95 88.0117 1069.86 87.6745 1069.86 87.2598C1069.86 86.6263 1070.12 86.141 1070.63 85.8037C1071.14 85.4619 1071.82 85.291 1072.65 85.291C1073.1 85.291 1073.52 85.3366 1073.91 85.4277C1074.31 85.5143 1074.68 85.6328 1075.02 85.7832L1074.64 86.6924C1074.33 86.5602 1074 86.4486 1073.65 86.3574C1073.3 86.2663 1072.94 86.2207 1072.57 86.2207C1072.05 86.2207 1071.65 86.3073 1071.36 86.4805C1071.09 86.6536 1070.95 86.8906 1070.95 87.1914C1070.95 87.4238 1071.01 87.6152 1071.14 87.7656C1071.27 87.916 1071.48 88.0573 1071.77 88.1895C1072.06 88.3216 1072.43 88.4766 1072.9 88.6543C1073.37 88.8275 1073.78 89.0075 1074.12 89.1943C1074.46 89.3766 1074.72 89.5999 1074.91 89.8643C1075.09 90.124 1075.19 90.459 1075.19 90.8691Z" fill="#575C74"/>
<defs>
<clipPath id="clip0_1_96">
<rect width="16.02" height="29.7" fill="white" transform="translate(78.31 88.2798)"/>
</clipPath>
<clipPath id="clip1_1_96">
<rect width="16.02" height="29.7" fill="white" transform="matrix(1 0 0 -1 78.31 117.98)"/>
</clipPath>
<clipPath id="clip2_1_96">
<rect width="16.02" height="16" fill="white" transform="matrix(1 0 0 -1 78.31 126.28)"/>
</clipPath>
<clipPath id="clip3_1_96">
<rect width="16.02" height="29.7" fill="white" transform="translate(95.33 88.2798)"/>
</clipPath>
<clipPath id="clip4_1_96">
<rect width="16.02" height="29.7" fill="white" transform="matrix(1 0 0 -1 95.33 117.98)"/>
</clipPath>
<clipPath id="clip5_1_96">
<rect width="16.02" height="16" fill="white" transform="matrix(1 0 0 -1 95.33 126.28)"/>
</clipPath>
<clipPath id="clip6_1_96">
<rect width="16.02" height="29.7" fill="white" transform="translate(112.34 88.2798)"/>
</clipPath>
<clipPath id="clip7_1_96">
<rect width="16.02" height="29.7" fill="white" transform="matrix(1 0 0 -1 112.34 117.98)"/>
</clipPath>
<clipPath id="clip8_1_96">
<rect width="16.02" height="16" fill="white" transform="matrix(1 0 0 -1 112.35 126.28)"/>
</clipPath>
<clipPath id="clip9_1_96">
<rect width="16.02" height="29.7" fill="white" transform="translate(129.36 88.2798)"/>
</clipPath>
<clipPath id="clip10_1_96">
<rect width="16.02" height="29.7" fill="white" transform="matrix(1 0 0 -1 129.36 117.98)"/>
</clipPath>
<clipPath id="clip11_1_96">
<rect width="16.02" height="16" fill="white" transform="matrix(1 0 0 -1 129.37 126.28)"/>
</clipPath>
<clipPath id="clip12_1_96">
<rect width="11.2" height="29.7" fill="white" transform="translate(146.38 88.2798)"/>
</clipPath>
<clipPath id="clip13_1_96">
<rect width="11.2" height="29.7" fill="white" transform="matrix(1 0 0 -1 146.38 117.98)"/>
</clipPath>
<clipPath id="clip14_1_96">
<rect width="16.02" height="16" fill="white" transform="matrix(1 0 0 -1 146.39 126.28)"/>
</clipPath>
</defs>
</svg>
